<svg width="1024" height="768" viewBox="0 0 1024 768" fill="none" xmlns="http://www.w3.org/2000/svg">
<path d="M516.112 729.004C632.912 729.004 727.596 725.622 727.596 721.451C727.596 717.279 632.912 713.898 516.112 713.898C399.313 713.898 304.628 717.279 304.628 721.451C304.628 725.622 399.313 729.004 516.112 729.004Z" fill="#3F3D56"/>
<path d="M426.658 151.352C468.451 151.352 502.331 117.47 502.331 75.6758C502.331 33.8812 468.451 0 426.658 0C384.865 0 350.986 33.8812 350.986 75.6758C350.986 117.47 384.865 151.352 426.658 151.352Z" fill="#FF6584"/>
<path d="M328.486 696C382.884 696 426.982 693.314 426.982 690C426.982 686.686 382.884 684 328.486 684C274.089 684 229.99 686.686 229.99 690C229.99 693.314 274.089 696 328.486 696Z" fill="#3F3D56"/>
<path d="M444.56 721.967C444.56 721.967 497.495 580.802 468.313 493.931C439.131 407.06 416.057 410.454 416.057 410.454C416.057 410.454 376.695 400.274 327.832 430.135C278.969 459.997 266.075 468.82 238.25 456.604C210.425 444.388 204.996 425.385 137.131 427.421C137.131 427.421 173.099 407.739 208.389 425.385C243.679 443.03 267.432 452.532 303.4 425.385C339.369 398.238 388.911 362.946 437.095 383.985C437.095 383.985 401.805 349.373 390.268 349.373C378.731 349.373 324.439 343.943 306.794 325.619C306.794 325.619 281.684 307.973 236.893 351.409C192.102 394.844 202.96 394.844 162.92 391.451C122.879 388.057 91.6614 368.376 91.6614 368.376C91.6614 368.376 138.488 387.379 166.992 377.877C195.495 368.376 219.926 332.406 245.037 320.189C270.147 307.973 285.077 291.685 319.009 309.331C319.009 309.331 304.758 250.964 277.612 255.715C250.466 260.466 290.506 242.141 290.506 242.141C290.506 242.141 283.041 143.054 268.789 136.267C254.538 129.481 263.36 111.835 236.893 108.442C236.893 108.442 269.468 104.369 275.576 126.766C281.684 149.162 323.76 269.967 323.76 269.967C323.76 269.967 349.549 321.547 378.052 309.331C406.555 297.114 367.194 228.568 367.194 228.568L318.331 206.171C318.331 206.171 354.978 204.814 377.373 225.853C399.769 246.892 401.126 314.76 401.126 314.76C401.126 314.76 457.454 322.904 471.027 353.445C471.027 353.445 479.85 326.298 462.883 310.009C458.642 305.937 454.188 298.853 449.894 290.518C433.47 258.644 427.899 222.309 433.065 186.826C435.594 169.462 437.15 152.484 434.38 148.484C428.272 139.661 402.484 85.3665 400.448 71.1142C398.412 56.8619 402.484 27.0001 402.484 27.0001C402.484 27.0001 403.162 63.6487 411.306 75.1863C419.45 86.7238 442.524 143.733 442.524 143.733C442.524 143.733 442.524 215.673 461.526 250.964C480.528 286.255 517.176 325.619 515.14 351.409V366.34C515.14 366.34 555.859 327.655 553.144 314.76C550.429 301.865 547.036 271.325 521.247 253C495.459 234.676 478.492 205.493 496.816 163.415C515.14 121.336 515.14 113.871 515.14 113.871L502.924 166.129C502.924 166.129 496.137 212.958 515.14 229.246C534.142 245.535 559.252 275.397 559.252 275.397L553.823 177.667L571.468 216.352C571.468 216.352 609.472 167.487 654.263 151.198C699.054 134.91 726.879 77.901 726.879 77.901L764.883 48.0391L733.665 85.3665C733.665 85.3665 724.164 129.481 670.551 160.7C616.937 191.919 582.326 238.069 580.29 266.574C578.254 295.078 576.218 320.189 576.218 320.189C576.218 320.189 676.659 316.796 699.054 272.682C721.45 228.568 723.486 141.018 745.202 126.766C766.919 112.514 807.638 94.868 807.638 94.868L762.169 132.195C762.169 132.195 752.668 162.736 754.703 184.454C756.739 206.171 739.773 226.532 739.773 226.532L726.879 264.538L712.627 297.114C712.627 297.114 770.991 298.472 801.53 333.084C832.07 367.697 908.079 377.877 908.079 377.877L865.324 389.415C865.324 389.415 824.605 375.841 785.921 350.73C747.238 325.619 751.31 303.222 703.126 328.334C654.942 353.445 589.113 374.484 589.113 374.484C589.113 374.484 627.117 356.838 695.661 399.595C764.205 442.352 661.728 392.129 631.189 408.418C600.65 424.706 586.398 404.346 574.182 445.066C561.967 485.787 539.571 597.091 565.36 659.529L591.149 721.967H444.56Z" fill="#7A2712"/>
<path opacity="0.1" d="M700.084 272.682C681.889 308.522 612.181 317.484 586.671 319.585C585.956 328.785 585.484 334.603 585.484 334.603C585.484 334.603 685.924 331.21 708.32 287.096C730.715 242.982 732.751 155.432 754.468 141.18C756.771 139.668 759.29 138.119 761.949 136.556C762.695 133.817 763.198 132.195 763.198 132.195L808.668 94.868C808.668 94.868 767.949 112.514 746.232 126.766C724.515 141.018 722.479 228.568 700.084 272.682Z" fill="black"/>
<path opacity="0.1" d="M583.05 204.118C582.902 220.827 580.734 230.765 580.734 230.765C580.734 230.765 618.722 181.921 663.501 165.623C666.147 163.949 668.832 162.3 671.58 160.7C725.194 129.481 734.695 85.3664 734.695 85.3664L765.913 48.039L727.908 77.9009C727.908 77.9009 700.084 134.91 655.293 151.198C624.761 162.301 597.388 188.536 583.05 204.118Z" fill="black"/>
<path opacity="0.1" d="M524.406 365.823V380.754C524.406 380.754 565.125 342.069 562.41 329.174C560.334 319.312 557.848 299.134 545.265 281.989C550.937 294.946 552.663 307.585 554.174 314.76C556.12 324.007 535.733 346.514 524.042 358.51C524.452 360.924 524.574 363.379 524.406 365.823Z" fill="black"/>
<path opacity="0.1" d="M469.785 263.359C470.107 264.047 470.44 264.724 470.792 265.378C481.199 284.706 496.888 305.251 508.627 324.123C499.14 305.434 482.629 284.063 469.785 263.359Z" fill="black"/>
<path opacity="0.1" d="M502.87 234.465C497.398 221.055 496.496 205.099 502.783 186.401C502.705 179.625 503.096 172.851 503.954 166.129L514.64 120.415C512.669 127.007 508.161 139.725 497.846 163.415C484.786 193.404 489.66 216.839 502.87 234.465Z" fill="black"/>
<path opacity="0.1" d="M802.56 333.084C781.381 309.08 746.825 301.072 727.629 298.417L721.893 311.528C721.893 311.528 780.257 312.886 810.796 347.498C827.732 366.693 858.646 378.37 882.831 384.968L909.108 377.877C909.108 377.877 833.099 367.697 802.56 333.084Z" fill="black"/>
<path opacity="0.1" d="M387.318 323.745C415.821 311.528 376.46 242.982 376.46 242.982L375.383 242.488C385.196 263.193 399.428 300.61 379.082 309.331C360.043 317.49 342.218 297.19 332.478 282.807C332.832 283.824 333.026 284.381 333.026 284.381C333.026 284.381 358.815 335.961 387.318 323.745Z" fill="black"/>
<path opacity="0.1" d="M480.293 367.859C480.293 367.859 488.882 341.384 472.747 325.037C476.704 339.119 472.057 353.445 472.057 353.445C461.557 329.819 425.479 319.598 409.676 316.18C410.288 324.046 410.392 329.174 410.392 329.174C410.392 329.174 466.72 337.318 480.293 367.859Z" fill="black"/>
<path opacity="0.1" d="M514.64 120.415C516.169 115.298 516.169 113.871 516.169 113.871L514.64 120.415Z" fill="black"/>
<path opacity="0.1" d="M175.846 392.421C175.982 392.377 176.121 392.336 176.257 392.291C204.761 382.79 229.192 346.82 254.302 334.603C279.412 322.387 294.343 306.099 328.275 323.745C328.275 323.745 322.339 299.444 310.835 283.479C314.645 291.814 317.725 300.463 320.039 309.331C286.106 291.685 271.176 307.973 246.066 320.189C220.956 332.406 196.525 368.376 168.021 377.877C139.518 387.379 92.6909 368.376 92.6909 368.376C92.6909 368.376 123.909 388.057 163.949 391.451C168.53 391.839 172.438 392.181 175.846 392.421Z" fill="black"/>
<path opacity="0.1" d="M458.784 721.967C471.218 683.847 501.123 578.434 477.579 508.345C467.411 478.077 457.986 458.776 450.019 446.462C455.977 458.119 462.492 473.537 469.342 493.931C498.524 580.802 445.59 721.967 445.59 721.967H458.784Z" fill="black"/>
<path opacity="0.1" d="M193.751 432.88C202.071 433.724 210.17 436.068 217.655 439.799C245.526 453.735 266.205 462.573 291.384 452.308C297.12 449.278 303.536 445.528 310.935 441.064C311.512 440.643 312.083 440.239 312.666 439.799C348.635 412.652 398.176 377.36 446.36 398.399C446.36 398.399 436.622 388.851 425.706 379.784C381.542 368.949 337.314 400.566 304.43 425.385C268.462 452.532 244.709 443.03 209.419 425.385C174.129 407.739 138.161 427.421 138.161 427.421C164.382 426.634 181.278 428.99 193.751 432.88Z" fill="black"/>
<path opacity="0.1" d="M262.636 129.679C263.411 130.983 264.349 132.182 265.427 133.247C264.635 131.956 263.699 130.759 262.636 129.679V129.679Z" fill="black"/>
<path opacity="0.1" d="M386.639 240.267C387.688 241.259 388.671 242.319 389.581 243.439C386.609 236.293 382.937 230.113 378.403 225.853C356.008 204.814 319.36 206.171 319.36 206.171L365.32 227.237C373.195 230.175 380.433 234.599 386.639 240.267V240.267Z" fill="black"/>
<path opacity="0.1" d="M435.41 148.484C438.179 152.484 436.623 169.462 434.095 186.826C428.928 222.309 434.5 258.644 450.923 290.518C453.085 294.796 455.5 298.941 458.154 302.932C442.516 271.542 437.272 235.984 442.331 201.24C444.859 183.876 446.415 166.898 443.646 162.898C437.538 154.075 411.749 99.7804 409.713 85.5282C409.103 79.9989 408.961 74.428 409.288 68.8749C404.016 53.9167 403.513 27 403.513 27C403.513 27 399.441 56.8619 401.477 71.1141C403.513 85.3663 429.302 139.661 435.41 148.484Z" fill="black"/>
<path opacity="0.1" d="M499.078 54.6587C498.806 53.3173 498.393 52.0084 497.846 50.7538C497.846 50.7538 498.367 52.2186 499.078 54.6587Z" fill="black"/>
<path opacity="0.1" d="M259.375 123.011C265.356 123.743 272.236 125.578 277.484 129.834C277.142 128.676 276.843 127.638 276.606 126.766C270.498 104.369 237.922 108.442 237.922 108.442C252.644 110.329 256.446 116.626 259.375 123.011Z" fill="black"/>
<path d="M428.051 692.969C432.89 710.857 449.464 721.935 449.464 721.935C449.464 721.935 458.192 704.012 453.354 686.124C448.515 668.237 431.941 657.158 431.941 657.158C431.941 657.158 423.213 675.082 428.051 692.969Z" fill="#3F3D56"/>
<path d="M435.161 689.125C448.439 702.051 450.061 721.921 450.061 721.921C450.061 721.921 430.155 720.834 416.878 707.908C403.6 694.982 401.978 675.112 401.978 675.112C401.978 675.112 421.884 676.199 435.161 689.125Z" fill="#2FC123"/>
<path d="M391.154 204.134C390 222.629 375.983 236.806 375.983 236.806C375.983 236.806 363.838 220.996 364.993 202.502C366.147 184.007 380.163 169.831 380.163 169.831C380.163 169.831 392.308 185.64 391.154 204.134Z" fill="#0C9800"/>
<path d="M245.047 87.2146C260.722 97.0973 266.439 116.196 266.439 116.196C266.439 116.196 246.742 119.271 231.068 109.389C215.393 99.5059 209.676 80.4074 209.676 80.4074C209.676 80.4074 229.372 77.3319 245.047 87.2146Z" fill="#14FF00"/>
<path d="M210.043 312.691C225.718 322.574 231.435 341.672 231.435 341.672C231.435 341.672 211.738 344.748 196.064 334.865C180.389 324.982 174.672 305.884 174.672 305.884C174.672 305.884 194.368 302.808 210.043 312.691Z" fill="#0C9800"/>
<path d="M293.435 399.175C309.109 409.058 314.827 428.156 314.827 428.156C314.827 428.156 295.13 431.232 279.455 421.349C263.781 411.466 258.064 392.368 258.064 392.368C258.064 392.368 277.76 389.292 293.435 399.175Z" fill="#14FF00"/>
<path d="M528.703 120.177C523.976 138.095 507.471 149.276 507.471 149.276C507.471 149.276 498.631 131.408 503.358 113.49C508.085 95.5729 524.589 84.3914 524.589 84.3914C524.589 84.3914 533.43 102.26 528.703 120.177Z" fill="#0C9800"/>
<path d="M677.815 134.148C672.259 151.826 655.252 162.227 655.252 162.227C655.252 162.227 647.253 143.967 652.809 126.289C658.365 108.611 675.372 98.2094 675.372 98.2094C675.372 98.2094 683.371 116.47 677.815 134.148Z" fill="#14FF00"/>
<path d="M838.982 330.897C828.918 346.456 809.755 351.95 809.755 351.95C809.755 351.95 806.909 332.219 816.974 316.659C827.038 301.1 846.201 295.606 846.201 295.606C846.201 295.606 849.046 315.337 838.982 330.897Z" fill="#0C9800"/>
<path d="M917.983 744.107C976.535 744.107 1024 740.725 1024 736.553C1024 732.382 976.535 729 917.983 729C859.432 729 811.967 732.382 811.967 736.553C811.967 740.725 859.432 744.107 917.983 744.107Z" fill="#2FC123"/>
<path d="M106.017 747.107C164.568 747.107 212.033 743.725 212.033 739.553C212.033 735.382 164.568 732 106.017 732C47.4653 732 0 735.382 0 739.553C0 743.725 47.4653 747.107 106.017 747.107Z" fill="#2FC123"/>
<path fill-rule="evenodd" clip-rule="evenodd" d="M334.338 557.331L335.913 557H338.614L340.264 557.331C341.365 557.561 342.465 557.952 343.565 558.503C344.666 559.055 345.606 559.696 346.386 560.428C347.156 561.149 347.766 561.961 348.217 562.863C348.667 563.765 348.892 565.068 348.892 566.772C348.892 568.476 348.592 570.28 347.991 572.184C347.391 574.088 346.756 575.752 346.086 577.175C345.406 578.608 345.056 579.34 345.036 579.37C345.006 579.39 344.966 579.45 344.916 579.55L344.841 579.7L344.766 579.851L344.691 580.001L344.646 580.031L344.616 580.076L344.646 580.121L344.691 580.151L344.736 580.182L344.766 580.227L344.796 580.272L344.841 580.302L344.886 580.332L344.916 580.377L347.466 580.828C349.167 581.129 350.917 581.605 352.718 582.256C354.518 582.908 356.044 583.484 357.294 583.985C358.544 584.486 360.37 584.962 362.77 585.413C365.171 585.864 370.772 586.591 379.575 587.593C388.377 588.595 394.328 589.247 397.429 589.547C400.53 589.848 403.281 590.073 405.681 590.224C408.082 590.374 409.572 590.565 410.153 590.795C410.723 591.016 411.133 591.276 411.383 591.577C411.633 591.878 411.783 592.103 411.833 592.253C411.883 592.404 411.923 592.479 411.953 592.479H411.983V594.433L411.383 596.207C410.983 597.38 410.208 597.966 409.057 597.966C407.907 597.966 406.632 597.791 405.231 597.44C403.831 597.089 402.506 596.738 401.255 596.388C400.005 596.037 398.73 595.761 397.429 595.561C396.129 595.36 394.603 595.31 392.853 595.41C391.103 595.511 389.352 595.786 387.602 596.237C385.851 596.688 384.476 597.164 383.476 597.665C382.475 598.166 381.725 598.843 381.225 599.695C380.725 600.547 380.25 601.173 379.8 601.574C379.35 601.975 378.374 602.175 376.874 602.175C375.374 602.175 374.198 602.1 373.348 601.95C372.498 601.8 370.847 601.749 368.397 601.8C365.946 601.85 363.395 602.075 360.745 602.476C358.094 602.877 356.344 603.253 355.493 603.604C354.643 603.954 354.128 604.345 353.948 604.776C353.778 605.197 353.743 605.808 353.843 606.61C353.943 607.412 353.968 608.64 353.918 610.293C353.868 611.947 353.668 613.35 353.318 614.503C352.968 615.655 352.478 616.823 351.847 618.006C351.227 619.178 350.742 620.03 350.392 620.561C350.042 621.082 349.817 621.343 349.717 621.343C349.617 621.343 349.242 621.704 348.592 622.425C347.941 623.157 347.026 624.059 345.846 625.131C344.676 626.214 343.94 626.981 343.64 627.432C343.34 627.883 343.255 628.218 343.385 628.439C343.505 628.669 343.99 629.185 344.841 629.987C345.691 630.789 346.816 631.365 348.217 631.716C349.617 632.067 350.967 632.568 352.268 633.219C353.568 633.871 354.968 634.723 356.469 635.775C357.969 636.827 360.43 638.19 363.851 639.864C367.281 641.548 369.382 642.615 370.152 643.066C370.932 643.517 371.322 643.793 371.322 643.893C371.322 643.993 371.623 644.284 372.223 644.765C372.823 645.236 373.513 646.008 374.293 647.08C375.063 648.163 375.974 649.606 377.024 651.41C378.074 653.214 379.099 655.268 380.1 657.573C381.1 659.879 382.125 662.735 383.176 666.143C384.226 669.55 385.186 673.218 386.056 677.147C386.937 681.086 389.052 683.506 392.403 684.408C395.754 685.31 397.804 685.937 398.555 686.287C399.305 686.638 399.755 686.839 399.905 686.889L400.13 686.964L400.16 687.009L400.205 687.039L400.25 687.069L400.28 687.114L400.31 687.159L400.355 687.189L400.4 687.219L400.43 687.264L400.58 687.31L400.73 687.34L400.7 687.49L400.655 687.64L400.61 687.67L400.58 687.715L400.55 687.761L400.505 687.791L400.46 687.821L400.43 687.866L400.4 687.911L400.355 687.941L400.31 687.971L400.28 688.016L400.13 688.091L399.98 688.166L399.95 688.212C399.92 688.232 399.72 688.352 399.35 688.572C398.97 688.803 398.379 689.018 397.579 689.219C396.779 689.419 394.428 689.519 390.527 689.519C386.626 689.519 383.651 689.67 381.6 689.97C379.55 690.271 377.249 690.421 374.698 690.421C372.148 690.421 369.862 689.033 367.842 686.257C365.811 683.471 364.496 681.376 363.896 679.973C363.295 678.57 362.695 676.841 362.095 674.787C361.495 672.732 360.945 670.903 360.445 669.3C359.945 667.696 359.469 666.493 359.019 665.692C358.569 664.89 357.869 664.013 356.919 663.061C355.969 662.109 354.928 661.322 353.798 660.7C352.678 660.069 351.367 659.528 349.867 659.077C348.367 658.626 347.091 658.35 346.041 658.25L344.466 658.1L343.985 661.001C343.655 662.925 343.325 663.978 342.995 664.158C342.675 664.329 342.465 664.439 342.365 664.489L342.215 664.564H341.765L341.615 664.489L341.465 664.414L341.315 664.339C341.215 664.288 340.975 664.078 340.595 663.707C340.224 663.326 340.089 662.71 340.189 661.858C340.289 661.006 340.364 659.954 340.415 658.701C340.465 657.448 340.425 656.371 340.294 655.469C340.174 654.567 339.739 654.006 338.989 653.785C338.239 653.555 337.489 653.414 336.739 653.364C335.988 653.314 335.388 653.389 334.938 653.59C334.488 653.79 334.153 654.076 333.933 654.447C333.703 654.827 333.563 656.446 333.513 659.302C333.463 662.159 333.388 664.188 333.288 665.391C333.188 666.594 332.703 667.285 331.832 667.465C330.952 667.636 330.152 667.506 329.432 667.075C328.701 666.654 328.336 665.967 328.336 665.015C328.336 664.063 328.361 662.259 328.411 659.603C328.461 656.947 328.401 655.559 328.231 655.439C328.051 655.308 327.386 655.193 326.236 655.093C325.086 654.993 324.16 654.817 323.46 654.567C322.76 654.316 322.01 654.166 321.21 654.116C320.409 654.066 319.409 654.191 318.209 654.492C317.008 654.792 315.358 655.419 313.257 656.371C311.157 657.323 309.206 658.35 307.406 659.453C305.606 660.555 303.905 661.858 302.305 663.361C300.704 664.865 299.264 666.052 297.984 666.924C296.713 667.806 295.093 668.688 293.122 669.57C291.142 670.442 289.126 671.429 287.076 672.532C285.025 673.634 283.5 674.611 282.5 675.463C281.499 676.315 280.439 677.408 279.319 678.741C278.188 680.063 277.008 681.386 275.778 682.709C274.558 684.042 273.447 685.06 272.447 685.761C271.447 686.463 270.496 686.964 269.596 687.264C268.696 687.565 267.396 687.715 265.695 687.715C263.995 687.715 262.244 687.48 260.444 687.009L257.743 686.287L256.813 689.068C256.183 690.923 255.853 691.875 255.823 691.925L255.793 692H255.343V691.925L254.742 691.85L254.142 691.774L253.467 691.699C253.017 691.649 252.567 691.574 252.117 691.474C251.667 691.374 250.416 690.872 248.366 689.97C246.315 689.068 245.24 688.432 245.14 688.061L244.99 687.49V685.085H245.065L245.14 684.107C245.19 683.456 245.24 682.955 245.29 682.604C245.34 682.253 245.615 681.376 246.115 679.973C246.615 678.57 247.215 677.342 247.916 676.29C248.616 675.238 249.191 674.486 249.641 674.035C250.091 673.584 250.701 672.998 251.472 672.276C252.252 671.545 253.767 670.402 256.018 668.849C258.268 667.295 260.444 665.792 262.544 664.339C264.645 662.885 266.906 661.041 269.326 658.806C271.757 656.581 273.547 655.043 274.698 654.191C275.848 653.339 277.438 652.502 279.469 651.68C281.489 650.849 282.85 650.257 283.55 649.906C284.25 649.556 285.09 648.914 286.07 647.982C287.041 647.06 289.091 644.855 292.222 641.367C295.343 637.89 297.143 635.685 297.623 634.753C298.094 633.831 298.604 632.818 299.154 631.716C299.704 630.614 300.294 629.722 300.924 629.04C301.544 628.369 302.415 627.617 303.535 626.785C304.665 625.963 306.466 624.851 308.936 623.448C311.417 622.045 312.747 620.892 312.927 619.99C313.097 619.088 313.132 618.487 313.032 618.186C312.932 617.885 312.597 617.444 312.027 616.863C311.447 616.292 310.757 615.806 309.957 615.405C309.156 615.004 308.256 614.778 307.256 614.728C306.256 614.678 304.155 615.004 300.954 615.705C297.753 616.407 295.628 616.783 294.578 616.833C293.527 616.883 292.842 616.592 292.522 615.961C292.192 615.34 291.627 614.077 290.827 612.173C290.026 610.268 289.426 608.615 289.026 607.212C288.626 605.808 288.401 604.581 288.351 603.528C288.301 602.476 288.326 601.724 288.426 601.273C288.526 600.822 288.726 600.271 289.026 599.62C289.326 598.968 289.811 598.202 290.482 597.32C291.162 596.448 292.802 594.834 295.403 592.479C298.004 590.124 299.954 588.42 301.254 587.367C302.555 586.315 303.855 585.363 305.155 584.511C306.456 583.659 307.956 582.883 309.657 582.181C311.357 581.479 313.032 581.003 314.683 580.753C316.333 580.502 317.809 580.252 319.109 580.001C320.409 579.751 321.76 579.274 323.16 578.573C324.56 577.871 325.886 576.994 327.136 575.942C328.386 574.89 329.022 574.178 329.042 573.807C329.072 573.427 328.812 572.134 328.261 569.929C327.711 567.724 327.436 566.02 327.436 564.817C327.436 563.615 327.611 562.638 327.961 561.886C328.311 561.134 328.761 560.483 329.312 559.932C329.862 559.38 330.572 558.864 331.442 558.383C332.322 557.912 333.288 557.561 334.338 557.331V557.331Z" fill="black" stroke="#201E1E" stroke-width="0.5"/>
<path d="M897.972 709.761C899.169 715.14 899.916 720.479 899.106 725.583C899.106 725.583 897.38 730.062 898.069 732.118C898.79 734.273 901 735.277 902.79 736.129C905.313 737.332 907.877 736.075 911.481 737.389C916.064 739.06 916.09 740.583 918.497 741.773C920.316 742.672 922.928 743.707 924.89 743.858C926.462 743.979 927.73 744.379 928.738 742.917C929.681 741.549 929.792 739.66 929.057 738.117C927.923 735.734 925.276 734.625 922.849 733.5C919.971 732.165 917.657 729.356 915.55 726.636C910.718 720.4 909.95 709.85 910.277 710.105C909.236 701.232 911.744 691.342 912.822 681.206C913.629 673.618 910.744 670.674 909.094 668.524C907.61 666.591 910.803 660.838 910.921 657.192C911.068 652.674 907.89 651.483 907.89 651.483C908.026 650.049 908.406 648.624 907.584 647.152C910.139 636.965 912.959 626.664 912.232 617.648C911.99 614.638 913.659 615.853 914.22 616.457C922.844 625.736 927.719 619.245 930.271 616.384C931.311 615.219 931.616 615.388 932.642 615.578C935.265 616.765 937.209 617.348 938.617 617.453C938.886 618.546 939.477 619.602 940.37 620.625C940.292 623.248 940.761 626.364 942.025 629.029C942.025 629.029 944.807 634.116 945.766 636.915C946.445 638.896 946.311 641.24 947.16 643.123C948.778 646.712 950.849 650.597 953.947 652.24C956.892 653.801 960.544 653.339 963.595 652.109C966.379 650.986 968.305 647.873 970.695 645.813C971.809 644.852 972.71 643.186 974.069 642.984C977.65 642.453 976.147 639.718 976.223 637.78C976.31 635.574 976.596 634.285 977.329 632.465C978.428 629.739 980.534 627.535 981.073 624.574C981.482 622.326 980.075 619.917 980.573 617.696C980.762 616.854 981.616 616.395 981.827 615.56C981.999 614.879 981.624 614.11 981.783 613.425C982.322 611.099 984.465 609.648 985.026 607.33C985.868 603.843 985.335 600.043 984.999 596.434C984.795 594.252 984.806 591.836 983.801 590.005C983.549 589.547 982.854 589.558 982.689 589.045C982.31 587.873 983.765 586.493 983.328 585.35C983.016 584.533 981.814 584.775 981.364 584.057C980.615 582.861 981.29 580.86 980.534 579.67C980.238 579.203 979.522 579.326 979.244 578.843C978.925 578.291 979.278 577.439 979.02 576.842C978.81 576.355 978.014 575.727 978.014 575.727C978.026 573.547 978.818 571.587 979.58 569.619C981.12 571.448 982.087 570.052 983.237 569.269C984.179 568.628 984.743 568.167 985.415 567.486C989.943 562.906 988.37 560.657 987.206 560.611C987.206 560.611 993.112 552.704 993.827 547.721C994.263 544.685 993.588 541.283 992.218 538.684C990.222 534.896 986.938 531.639 983.334 530.543C978.924 529.201 974.05 530.974 969.856 533.097C968.219 533.925 963.191 541.177 962.761 545.669C962.761 545.669 962.324 548.001 961.811 548.998C961.335 549.923 959.91 551.321 959.91 551.321C959.91 551.321 957.066 546.363 954.961 544.938C953.36 543.855 950.982 545.012 949.569 543.598C948.912 542.94 949.257 541.39 948.596 540.738C945.828 538.01 940.84 541.038 938.069 538.314C937.311 537.569 937.611 535.908 936.946 535.044C936.009 533.825 934.591 533.211 933.257 532.8C932.645 532.612 931.895 533.137 931.362 532.726C930.873 532.348 931.108 531.14 930.581 530.844C929.627 530.306 928.559 531.638 927.508 531.728C926.061 531.851 924.623 531.308 923.173 531.24C922.254 531.196 921.298 531.597 920.414 531.29C916.187 529.821 913.691 523.402 909.341 522.621C907.431 522.277 905.634 523.929 903.774 524.552C902.203 525.078 900.487 525.149 899.049 526.076C897.623 526.995 896.885 529.164 895.399 529.934C893.599 530.867 891.357 531.488 889.546 530.585C886.765 529.197 885.934 524.726 883.76 522.212C882.406 520.646 880.55 519.765 879.29 518.087C878.819 517.46 878.694 516.506 878.181 515.928C877.751 515.443 876.96 515.512 876.618 514.932C875.347 512.776 876.517 509.498 875.619 507.083C874.356 503.691 871.042 501.855 869.723 498.494C868.662 495.794 869.879 491.992 868.297 489.694C860.605 478.521 842.526 457.312 842.325 456.234C842.101 455.04 840.27 455.98 838.232 459.228C838.232 459.228 836.675 456.861 835.951 455.63C835.179 454.317 834.739 452.679 833.754 451.594C832.257 449.945 829.85 449.837 828.391 448.139C826.826 446.319 824.952 442.097 822.251 443.173C818.648 444.608 817.593 450.101 816.751 453.428C816.254 455.389 816.315 457.496 816.177 459.54C816.087 460.875 815.875 462.224 816.01 463.553C816.222 465.624 817.372 466.733 819.225 468.245C819.721 468.65 819.445 470.263 820.785 470.44C822.236 470.631 824.426 469.773 824.687 468.038C824.943 466.337 822.967 466.593 823.472 466.033C824.202 465.223 823.35 464.037 823.696 463.697C824.392 463.013 825.87 462.852 826.935 463.137C829.278 463.764 832.964 467.888 832.964 467.888C831.97 470.128 830.106 470.343 829.981 474.61C833.851 482.732 835.18 480.477 836.683 484.165C836.683 484.165 840.719 494.82 843.101 499.914C846.395 506.957 850.621 513.32 853.96 520.333C857.038 526.798 859.117 533.932 862.395 540.251C865.357 545.963 871.251 549.815 872.479 556.391C874.101 565.083 881.427 577.616 882.201 576.765C882.459 580.139 882.694 583.547 882.674 587.326C882.674 587.326 879.508 592.042 879.143 594.908C877.808 605.409 883.171 614.317 883.171 614.317C883.171 614.317 883.629 626.664 884.014 632.826C884.3 637.396 885.15 641.93 885.104 646.513C885.076 649.255 884.207 651.939 884.285 654.678C884.346 656.808 885.154 658.832 885.283 660.958C885.449 663.694 885.088 666.439 884.988 669.179C884.917 671.128 885.106 673.116 884.772 675.024C883.098 684.565 879.339 705.265 879.669 705.691C885.861 707.77 891.939 708.952 897.972 709.761Z" fill="black"/>
<path fill-rule="evenodd" clip-rule="evenodd" d="M26.7719 527.697L29.17 527H33.9663L36.6915 527.827C38.5082 528.364 40.0706 529.032 41.3787 529.83C42.6868 530.628 43.864 531.556 44.9105 532.616C45.9715 533.66 46.7927 534.908 47.374 536.359C47.9554 537.811 48.5731 540.023 49.2271 542.998C49.8812 545.973 50.3753 548.824 50.7096 551.552C51.0294 554.266 52.2793 555.586 54.4594 555.514C56.6395 555.441 59.2557 555.151 62.3079 554.643C65.36 554.135 68.5939 553.917 72.0094 553.99C75.4249 554.063 78.1501 554.317 80.1848 554.752C82.2196 555.187 84.9811 556.022 88.4693 557.255C91.9575 558.488 96.6447 560.23 102.531 562.479C108.417 564.728 117.392 567.884 129.456 571.947C141.519 576.01 147.841 577.969 148.423 577.824C149.004 577.679 150.007 577.077 151.431 576.017C152.841 574.973 153.786 574.247 154.265 573.841C154.73 573.449 155.544 573.289 156.707 573.362C157.87 573.434 159.687 573.906 162.157 574.777C164.628 575.647 167.281 576.264 170.115 576.627C172.949 576.99 177.927 577.135 185.049 577.062C192.17 576.99 198.529 576.699 204.125 576.192C209.72 575.684 214.807 575.14 219.385 574.559C223.964 573.979 229.123 573.434 234.864 572.927C240.605 572.419 244.675 572.201 247.073 572.274C249.471 572.346 252.705 572.927 256.774 574.015C260.844 575.103 263.497 575.72 264.732 575.865C265.967 576.01 268.91 576.119 273.561 576.192C278.212 576.264 281.41 576.591 283.154 577.171C284.898 577.751 285.806 578.063 285.879 578.107L285.988 578.15V582.721H285.945C285.901 582.721 285.77 583.519 285.552 585.116C285.334 586.712 284.971 588.308 284.462 589.904C283.953 591.5 283.357 592.821 282.674 593.866C281.977 594.925 281.337 595.491 280.756 595.563C280.174 595.636 279.375 595.527 278.358 595.237C277.34 594.947 275.974 594.199 274.259 592.995C272.559 591.805 270.96 590.833 269.463 590.078C267.98 589.309 266.367 588.707 264.623 588.272C262.879 587.836 261.353 587.583 260.045 587.51C258.737 587.437 257.879 587.67 257.472 588.206C257.08 588.758 256.593 589.868 256.011 591.537C255.43 593.205 255.03 595.636 254.812 598.828C254.594 602.021 254.362 604.379 254.115 605.902C253.853 607.426 253.577 608.202 253.286 608.231C252.996 608.275 251.361 608.297 248.381 608.297C245.402 608.297 239.842 607.934 231.703 607.208C223.564 606.483 217.569 606.011 213.717 605.794C209.866 605.576 202.308 606.193 191.044 607.644C179.78 609.095 172.658 610.074 169.679 610.582C166.699 611.09 163.102 612.287 158.887 614.174C154.672 616.06 151.22 617.765 148.532 619.289L144.498 621.574L144.455 621.639L144.389 621.683L144.324 621.726L144.28 621.792L144.062 621.9L143.844 622.009L143.626 622.075L143.408 622.118L143.452 622.336L143.517 622.553L143.583 622.597L143.626 622.662L143.953 622.771L144.28 622.88L144.498 622.989L144.716 623.098L156.816 626.58C164.882 628.902 171.023 630.825 175.238 632.348C179.453 633.872 182.323 635.033 183.85 635.831C185.376 636.629 186.211 637.064 186.357 637.137L186.575 637.246L186.618 637.311L186.684 637.354L186.749 637.398L186.793 637.463L186.836 637.529L186.902 637.572L186.967 637.616L187.011 637.681L187.054 637.746L187.12 637.79V638.007L187.054 638.051L187.011 638.116L186.967 638.182L186.902 638.225L186.836 638.269L186.793 638.334L186.749 638.399L186.684 638.443L186.618 638.486L186.575 638.552L186.531 638.617L186.466 638.66L186.4 638.704L186.357 638.769L186.313 638.835L186.248 638.878L186.182 638.922L186.139 638.987L186.095 639.052L186.03 639.096L185.964 639.139L185.921 639.205L185.703 639.313C185.557 639.386 185.376 639.495 185.158 639.64C184.94 639.785 184.504 639.894 183.85 639.966C183.195 640.039 182.505 639.966 181.778 639.749C181.052 639.531 179.417 639.386 176.873 639.313C174.33 639.241 171.932 639.35 169.679 639.64C167.426 639.93 164.991 640.402 162.375 641.055C159.759 641.708 157.506 642.506 155.617 643.449C153.728 644.392 152.528 645.081 152.02 645.517C151.511 645.952 150.879 646.728 150.123 647.846C149.353 648.978 148.459 651.031 147.442 654.006C146.424 656.98 145.479 659.447 144.607 661.406C143.735 663.365 142.718 665.179 141.555 666.848C140.392 668.516 136.417 672.703 129.63 679.407C122.828 686.125 119.173 689.753 118.664 690.29C118.155 690.841 117.429 691.465 116.484 692.162C115.539 692.844 114.921 693.352 114.631 693.685C114.34 694.005 113.889 694.346 113.279 694.708C112.654 695.071 111.324 695.797 109.289 696.885C107.255 697.973 104.951 698.895 102.378 699.649C99.7914 700.418 97.5895 700.984 95.7727 701.347L93.0475 701.891V702H89.9954V701.891L89.1233 701.782L88.2513 701.674L87.9243 701.565C87.7062 701.492 87.1976 701.311 86.3982 701.021C85.5988 700.73 84.5596 700.128 83.2806 699.214C82.0161 698.314 80.9115 697.357 79.9668 696.341C79.0221 695.325 78.2954 694.309 77.7867 693.294C77.278 692.278 76.842 691.081 76.4786 689.702C76.1153 688.324 75.8973 685.857 75.8246 682.302C75.7519 678.746 76.0426 674.139 76.6966 668.48C77.3507 662.821 77.6995 658.722 77.7431 656.182L77.7867 652.373L77.5687 652.417L77.3507 652.482L75.9336 652.591C74.9889 652.663 73.8262 652.845 72.4454 653.135C71.0647 653.425 69.2479 653.607 66.9951 653.679C64.7423 653.752 63.2162 653.737 62.4169 653.636C61.6175 653.519 61.0143 652.772 60.6074 651.394C60.2149 650.015 59.9824 647.947 59.9097 645.19L59.8007 641.055L59.6917 640.837L59.5827 640.619L59.5173 640.576L59.4737 640.511H59.0377C58.747 640.511 58.2383 640.583 57.5116 640.728C56.7849 640.873 54.7501 641.49 51.4073 642.578C48.0644 643.667 44.8306 644.646 41.7057 645.517C38.5809 646.387 36.0738 646.859 34.1843 646.932C32.2949 647.004 30.9505 646.932 30.1511 646.714C29.3517 646.496 28.4797 646.134 27.535 645.626C26.5902 645.118 25.8417 644.595 25.2894 644.058L24.4828 643.231L24.4174 643.188L24.3738 643.123L24.4174 643.057L24.4828 643.014L24.5918 642.796C24.6645 642.651 24.8461 642.361 25.1368 641.925C25.4275 641.49 25.7909 641.055 26.2269 640.619C26.6629 640.184 27.4114 639.836 28.4724 639.575C29.5189 639.328 31.9315 638.914 35.7104 638.334C39.4893 637.754 43.7042 636.955 48.3551 635.94C53.006 634.924 56.4215 633.981 58.6017 633.11C60.7818 632.239 62.2715 631.478 63.0709 630.825L64.27 629.845L64.3136 629.78L64.379 629.736L64.4444 629.693L64.488 629.627L64.5316 629.562L64.597 629.519V628.866L64.5316 628.822L64.488 628.757L64.4444 628.692C64.4008 628.663 64.3281 628.59 64.2264 628.474C64.1101 628.372 63.0709 627.545 61.1088 625.993C59.1467 624.425 58.1511 623.569 58.122 623.424C58.0784 623.279 57.5116 622.807 56.4215 622.009C55.3315 621.211 53.1659 619.666 49.9248 617.373L45.0849 613.956L44.8669 613.847L44.6489 613.738H44.2129L44.1693 613.803L44.1039 613.847L43.9949 614.391C43.9222 614.754 43.4862 616.278 42.6868 618.962C41.8874 621.647 41.0517 623.823 40.1796 625.492C39.3076 627.161 38.6172 628.285 38.1085 628.866C37.5998 629.446 36.9603 629.968 36.19 630.433C35.4343 630.912 34.584 631.187 33.6393 631.26C32.6946 631.333 31.8952 631.26 31.2412 631.042C30.5871 630.825 29.6787 630.302 28.516 629.475C27.3533 628.633 26.7574 628.14 26.7283 627.995C26.6847 627.85 26.4231 627.596 25.9435 627.233C25.4784 626.87 25.2095 626.602 25.1368 626.428C25.0642 626.239 24.6281 625.543 23.8288 624.338C23.0294 623.148 22.557 622.553 22.4117 622.553C22.2663 622.553 21.6486 621.451 20.5586 619.245C19.4685 617.025 18.502 614.66 17.659 612.149C16.8306 609.653 16.1765 606.954 15.6969 604.052L14.9993 599.699V592.951H15.1083L15.2173 591.537C15.29 590.593 15.4716 589.433 15.7623 588.054C16.053 586.676 16.5617 585.225 17.2884 583.701C18.0151 582.177 19.4685 580.291 21.6486 578.042C23.8288 575.792 25.2095 574.087 25.7909 572.927C26.3722 571.766 26.8446 570.17 27.2079 568.138C27.5713 566.107 27.644 564.256 27.4259 562.588C27.2079 560.919 26.612 559.25 25.6382 557.581C24.6499 555.913 24.0831 555.078 23.9378 555.078C23.7924 555.078 23.4291 554.658 22.8477 553.816C22.2663 552.989 21.5396 551.886 20.6676 550.507C19.7955 549.129 19.0543 547.518 18.4439 545.675C17.8189 543.818 17.5064 541.801 17.5064 539.624C17.5064 537.448 17.7244 535.815 18.1604 534.727C18.5965 533.639 19.2505 532.623 20.1225 531.68C20.9946 530.737 21.9175 529.96 22.8913 529.351C23.8796 528.727 25.1732 528.175 26.7719 527.697V527.697ZM130.764 644.973L130.546 645.081H129.238L129.194 645.016L129.129 644.973V643.884L129.783 641.272C130.219 639.531 130.749 638.007 131.374 636.701C131.984 635.396 132.362 634.743 132.508 634.743C132.653 634.743 133.104 634.235 133.859 633.219C134.63 632.203 135.618 631.129 136.824 629.998C138.016 628.88 138.699 628.343 138.874 628.387C139.063 628.416 139.23 629.337 139.375 631.151C139.52 632.965 139.448 634.561 139.157 635.94C138.866 637.318 138.379 638.573 137.696 639.705C136.999 640.823 136.25 641.744 135.451 642.47C134.651 643.195 133.707 643.775 132.617 644.211C131.527 644.646 130.909 644.9 130.764 644.973Z" fill="black" stroke="black" stroke-width="0.5"/>
<path d="M696.121 667.291C696.028 667.01 695.899 666.743 695.746 666.494C695.319 665.813 695.012 665.067 694.651 664.351C682.421 638.725 679.423 637.16 670.327 628.013C667.273 624.943 660.702 618.728 660.702 618.728C660.736 618.479 660.751 618.228 660.737 617.979C660.46 617.554 660.63 617.333 660.373 616.234C659.311 614.255 658.68 613.9 658.154 612.726C657.96 612.339 656.199 609.584 655.093 608.793C654.375 608.209 652.415 605.328 651.439 604.006C651.432 603.948 651.42 603.832 651.415 603.775C650.817 602.546 649.742 601.631 648.578 600.957C648.373 600.89 648.255 600.724 648.257 600.512C647.545 599.194 648.382 599.427 645.54 598.147C645.484 598.139 645.37 598.122 645.313 598.114C645.031 597.926 644.714 597.808 644.384 597.744C644.189 597.63 643.96 597.663 643.749 597.666C643.848 597.546 643.838 597.418 643.754 597.296C643.56 597.013 643.785 596.216 643.813 595.897C643.884 595.111 643.876 594.321 643.96 593.537C643.908 593.341 643.882 593.096 643.796 592.913C643.709 592.729 643.523 592.602 643.469 592.401C643.352 591.971 644.139 590.695 644.064 589.588C644.043 589.282 643.921 589.001 643.828 588.713C643.625 588.085 644.168 587.896 644.267 586.566C644.265 586.608 644.263 586.651 644.261 586.693C644.711 584.587 647.156 579.38 647.848 578.278C648.889 576.622 653.112 569.732 653.426 567.81C653.463 567.749 655.725 561.98 655.627 559.91C656.07 560.112 658.511 563.087 658.837 563.467C661.179 566.194 661.888 566.481 665.394 568.343C666.896 569.141 666.961 569.371 668.904 569.984C671.024 570.654 671.676 572.005 674.96 572.439C676.044 572.582 677.246 572.732 678.337 572.633C678.786 572.592 679.212 572.819 679.666 572.743C681.439 572.449 682.929 570.932 683.489 569.282C683.73 568.572 683.869 567.835 684.008 567.104C684.235 566.449 684.136 565.75 684.158 565.072C684.151 564.579 684.21 564.05 683.947 563.608C683.78 562.826 683.356 562.442 683.428 561.397C683.227 560.985 683.458 560.522 683.272 560.112C683.26 559.587 683.409 559.074 683.366 558.549C683.337 558.21 683.555 557.877 683.405 557.549C683.251 557.06 683.418 556.58 683.374 556.091C683.271 554.927 681.975 553.344 681.828 552.848C681.632 552.15 679.74 550.262 679.06 549.075C678.507 548.067 677.704 547.177 676.709 546.594C676.395 546.319 675.959 546.126 675.839 545.693C675.597 544.993 675.394 544.28 675.102 543.599C674.554 541.299 672.538 539.215 671.677 537.948C671.2 537.269 670.519 536.784 669.892 536.256C668.539 535.069 667.034 532.63 665.532 531.522C665.31 530.672 665.513 529.788 665.366 528.929C665.29 528.559 665.291 528.183 665.273 527.809C664.858 524.769 663.397 523.218 662.448 521.012C660.354 517.207 657.998 513.071 653.943 511.459C653.381 511.243 652.768 511.19 652.205 510.983C650.136 509.797 647.098 509.403 645.474 509.625C641.695 510.101 643.946 508.691 634.774 508.366C633.448 508.269 632.159 507.937 630.846 507.759C630.327 507.646 629.766 507.719 629.286 507.464C629.366 506.966 629.203 506.488 629.158 505.998C628.942 505.557 628.868 505.014 628.468 504.689C627.772 504.254 626.879 504.052 626.087 504.327C625.801 504.461 625.584 504.695 625.322 504.864C625.45 504.421 625.436 503.955 625.548 503.509C625.71 502.863 625.201 502.246 625.409 501.61C625.656 500.541 624.693 498.772 623.936 498.325C623.941 497.913 624.018 497.501 623.945 497.091C623.889 496.602 623.582 496.197 623.424 495.742C623.237 495.308 623.107 494.849 622.902 494.424C622.496 493.955 622.329 493.284 621.742 492.987C621.519 492.577 621.675 492.1 621.554 491.668C621.554 491.668 621.413 487.107 619.371 477.95C618.951 476.825 619.036 475.589 618.633 474.462C618.42 473.563 618.314 472.64 618.068 471.747C617.715 470.298 616.637 469.198 616.016 467.872C615.559 466.819 614.733 465.999 614.009 465.131C613.601 464.68 613.51 464.036 613.11 463.584C612.343 463.214 611.571 462.844 610.879 462.342C610.397 461.979 609.838 461.742 609.344 461.4C608.752 461.01 608.061 460.83 607.416 460.553C606.94 460.366 606.52 460.069 606.058 459.852C605.229 459.635 604.416 459.331 603.559 459.245C603.199 459.213 602.886 458.95 602.516 459.008C601.89 459.078 601.27 459.219 600.639 459.224C599.978 459.203 599.324 459 598.662 459.105C597.505 459.221 598.369 459.307 595.623 459.126C595.074 459.077 594.546 459.309 593.997 459.256C593.421 459.202 592.805 459.475 592.495 459.966C592.279 460.467 592.016 461.116 591.412 461.218C590.694 461.282 589.894 461.298 589.317 461.793C588.946 462.122 588.482 462.357 588.205 462.781C587.682 463.499 586.795 463.778 586.11 464.302C585.562 464.708 584.84 464.522 584.239 464.769C583.677 464.992 583.066 465.154 582.612 465.573C580.467 467.311 578.316 467.925 578.16 471.545C577.852 472.018 576.215 474.875 576.168 477.126C576.057 477.393 576.031 477.687 575.932 477.959C574.852 479.672 575.04 481.921 575.024 483.374C575.02 483.748 575.356 484.278 575.564 484.58C575.649 484.974 576.044 485.166 576.213 485.513C576.354 485.834 576.608 486.083 576.868 486.314C577.173 487.332 576.882 486.834 577.654 488.267C578.436 489.718 578.04 489.069 579.899 490.972C580.019 492.134 580.089 491.773 580.351 493.267C580.419 493.658 580.659 493.884 580.808 494.243C581.025 494.766 582.076 494.669 582.03 495.529C582.148 495.806 582.351 496.031 582.591 496.212C582.559 497.084 582.691 497.976 582.446 498.825C581.818 501.159 583.245 501.825 583.411 501.967C584.047 502.494 584.908 502.763 585.729 502.597C585.774 503.282 586.003 503.981 585.757 504.658C585.848 505.688 586.761 506.407 587.588 506.905C587.752 507.177 587.806 507.49 587.849 507.801C587.945 508.215 588.223 508.715 588.728 508.63C589.054 508.968 589.306 509.37 589.621 509.721C590.262 510.479 589.947 512.917 591.302 513.537C592.193 514.022 593.179 513.48 594.116 513.51C594.789 513.54 595.427 513.246 596.099 513.274C596.874 513.314 597.714 512.967 597.828 513.297C600.036 520.558 600.094 520.075 599.83 520.239C596.966 522.535 594.127 525.591 593.857 525.927C592.528 527.367 593.511 526.589 592.09 527.428C591.791 527.527 591.461 527.429 591.161 527.527C590.278 527.777 589.2 528.807 587.768 529.489C587.468 529.673 587.139 529.805 586.845 529.996C585.038 531.175 585.12 531.347 583.899 532.507C583.698 532.673 583.606 532.916 583.486 533.137C582.887 533.888 582.769 533.506 581.032 536.31C580.053 537.966 578.376 540.398 578.148 541.616C577.376 542.987 577.139 547.227 576.936 547.963C576.791 548.491 576.478 548.783 576.277 549.642C575.768 550.875 575.677 552.208 575.001 553.272C573.78 555.19 570.582 557.885 569.703 560.354C569.664 560.416 568.711 561.764 568.587 562.115C568.552 562.177 567.558 563.842 567.364 564.314C566.723 566.314 566.989 566.168 566.73 567.342C566.221 567.956 566.305 568.165 565.291 568.479C564.633 568.777 557.949 570.529 555.534 572.259C555.135 572.546 554.662 572.696 554.223 572.906C553.934 573.099 553.634 573.277 553.295 573.366C552.962 573.566 551.74 573.928 551.197 574.181C550.405 574.664 549.458 574.81 548.628 575.223C546.309 576.48 545.279 577.405 544.558 577.553C543.819 578.17 542.976 578.377 542.574 578.61C539.591 579.805 540.246 579.821 538.674 579.985C537.97 580.165 537.231 580.01 536.53 580.233C536.251 580.338 535.959 580.436 535.657 580.432C535.165 580.414 534.697 580.597 534.205 580.569L534.073 580.633C533.051 580.768 532.054 581.056 531.048 581.277C530.586 581.546 527.607 582.508 527.442 582.568C525.589 583.36 525.288 582.945 524.407 583.322C523.918 583.444 523.354 583.639 522.196 583.325C520.352 581.78 519.151 582.103 517.068 580.916C516.872 580.804 516.619 580.575 516.381 580.575C514.36 579.838 514.751 580.028 514.273 579.883C513.577 579.706 513.542 579.577 513.107 579.481C512.373 579.084 511.678 578.567 511.22 577.86C510.707 576.996 509.547 576.919 508.922 576.168C508.635 575.81 508.255 575.53 508.004 575.141C507.852 574.732 507.568 574.387 507.434 573.974C506.858 572.883 507.205 573.267 506.469 572.881C506.12 572.865 505.769 572.868 505.42 572.873C504.761 573.321 502.795 574.28 504.874 578.157C505.216 578.943 505.694 579.747 506.473 580.166C506.92 580.407 507.289 580.902 507.639 581.261C507.745 581.37 508.192 581.683 508.216 581.817C508.248 581.996 506.602 583.268 505.664 583.268C505.436 583.371 505.168 583.311 504.95 583.442C504.552 583.446 504.16 583.511 503.794 583.673C501.907 584.032 503.075 583.439 499.864 584.727C499.526 584.899 499.129 584.845 498.784 585.001C496.96 585.848 497.668 584.657 495.299 586.002C493.976 586.446 491.955 586.442 491.525 587.233C491.108 587.999 491.608 590.101 493.801 590.058C496.212 590.01 501.654 588.641 501.592 588.649C502.21 588.576 502.805 588.657 503.42 588.507C503.933 588.454 504.437 588.322 504.957 588.363C504.256 588.919 503.457 589.355 502.826 589.999C502.302 590.317 501.945 590.83 501.439 591.17C501.249 591.805 500.512 591.984 500.069 592.404C499.795 592.296 499.513 592.349 499.251 592.46C498.598 592.672 497.855 592.574 497.272 592.992C497.215 593 497.101 593.016 497.044 593.025C495.741 593.626 494.528 593.309 493.632 593.659C492.428 594.13 492.811 595.945 493.735 596.343C493.936 596.343 494.081 596.431 494.169 596.557C494.218 596.591 494.27 596.628 494.302 596.65C494.308 597.281 494.27 597.094 494.78 597.732C494.997 598.005 495.234 598.148 495.586 598.133C496.259 598.106 497.417 598.268 498.967 597.11C499.122 596.993 499.213 596.789 499.379 596.689C499.694 596.5 500.051 596.397 500.373 596.223C500.793 595.997 501.139 595.988 501.622 595.938C502.321 595.865 503.349 595.364 503.304 595.327C504.007 595.9 505.085 594.88 508.561 595.017C508.842 595.028 508.924 595.102 509.07 595.324L509.111 595.295C509.1 595.31 509.09 595.325 509.081 595.34C509.156 595.462 509.237 595.671 509.271 595.914C509.374 596.06 509.31 596.27 509.33 596.443C509.303 596.486 509.276 596.527 509.248 596.569C509.221 596.657 509.167 596.73 509.097 596.786C508.395 597.749 508.437 597.41 508.078 597.812C507.667 598.281 507.041 598.462 506.588 598.882C505.702 599.761 504.748 599.903 502.926 601.235C502.553 601.331 502.299 601.541 502.001 601.767C501.58 602.086 500.915 602.213 500.74 602.792C500.481 604.011 502.06 604.855 503.957 603.925C504.695 603.54 505.454 603.198 506.187 602.803C507.252 602.292 508.198 601.552 509.31 601.135C509.629 601.019 509.919 600.835 510.16 600.597C510.58 600.185 511.105 599.907 511.535 599.508C512.808 598.35 514.127 598.633 514.693 598.564C524.361 597.393 523.458 596.488 525.684 594.932C526.046 594.768 526.446 594.705 526.813 594.551C527.325 594.327 527.906 594.475 528.427 594.276C529.138 594.004 529.952 593.99 530.699 593.909C531.373 593.835 531.986 593.577 532.652 593.545C536.873 593.341 545.884 593.217 554.357 591.626C558.605 590.828 558.637 590.779 563.262 588.371C563.262 588.371 565.622 586.466 569.906 583.953C570.637 583.761 571.311 583.381 571.893 582.903C572.28 582.594 572.389 582.087 572.684 581.71C573.257 581.042 573.72 580.278 574.386 579.691C574.863 579.186 575.507 578.878 575.961 578.349C577.404 576.748 584.39 571.432 585.603 569.028C585.865 568.497 586.338 568.119 586.669 567.636C587.455 566.305 588.248 564.974 589.136 563.704C589.498 563.218 589.661 562.624 589.97 562.106C590.514 561.167 590.64 559.971 591.166 560.044C591.225 560.42 592.193 563.716 592.26 563.904C592.571 565.178 593.251 566.309 593.811 567.481C594.899 570.461 594.134 569.48 595.247 571.63C595.672 572.456 595.14 571.917 595.304 573.805C595.453 574.649 595.406 575.538 595.767 576.336C596.015 576.854 595.983 577.438 595.905 577.993C595.458 578.41 595.215 578.987 595.093 579.576C595.008 580.07 594.478 580.28 594.284 580.714C593.646 582.234 593.793 583.002 594.165 583.638C593.583 584.355 593.542 583.257 592.049 588.017C591.9 588.393 592.151 588.753 592.162 589.13C591.774 589.27 591.485 589.614 591.355 589.997C591.4 590.395 591.61 590.762 591.603 591.173C591.293 591.312 590.864 591.324 590.704 591.671C590.446 592.086 590.757 592.558 590.832 592.982C589.933 593.37 587.74 593.576 586.739 593.997C586.3 594.139 586.297 594.667 586.17 595.035C584.942 595.536 584.628 595.504 584.605 595.859C583.941 595.926 582.579 597.031 582.205 597.294C581.776 597.597 581.393 597.998 581.225 598.505C581.101 599.152 581.029 599.815 581.122 600.473C580.487 601.163 580 601.164 579.478 602.478C579.409 602.501 579.272 602.546 579.203 602.569C579.242 603.836 579.557 602.942 579.331 604.981C579.269 605.404 578.902 605.381 577.403 606.328C576.879 606.658 576.419 607.097 575.839 607.335C575.407 607.517 574.946 607.641 574.55 607.9C572.757 609.042 571.057 609.709 570.866 610.293C570.711 610.758 570.514 611.213 570.463 611.706C569.426 612.782 569.283 612.259 568.683 612.657C567.39 613.457 564.913 616.906 564.216 617.362C563.107 618.142 562.225 619.18 561.362 620.214C560.874 620.712 559.251 622.27 558.104 623.925C555.412 626.824 556.446 625.151 553.983 628.678C553.582 629.38 553.016 629.971 552.646 630.693C552.233 631.474 551.413 631.878 550.784 632.454C550.242 632.918 548.579 635.019 548.031 635.531C547.418 636.203 546.71 636.819 546.339 637.668C545.568 638.6 544.753 639.503 543.905 640.369C543.141 641.128 542.931 642.233 542.312 643.091C542.312 643.091 541.492 644.615 539.057 647.968C538.224 649.11 537.738 650.475 536.83 651.565C536.363 652.252 535.794 652.861 535.326 653.549C533.848 655.555 529.425 662.549 527.723 664.354C526.207 666.062 524.995 668.052 523.225 669.523C523.062 669.689 522.992 669.915 522.912 670.131C522.645 670.9 522.43 670.913 521.136 672.789C519.95 674.452 520.46 677.206 519.907 679.147C519.753 679.893 519.213 680.468 518.932 681.164C518.563 681.843 518.456 682.62 518.111 683.31C517.279 685.612 513.521 692.018 512.071 697.114C511.941 697.567 511.653 697.945 511.436 698.358C511.05 699.063 509.316 704.279 509.194 705.095C509.136 705.563 508.709 705.846 508.509 706.251C508.164 706.919 507.592 707.465 507.392 708.208C507.267 708.714 506.799 709.044 506.677 709.553C506.473 710.224 506.797 710.89 506.96 711.532C507.112 712.233 506.859 712.927 506.637 713.583C506.134 714.779 506.861 714.517 504.452 717.195C503.585 717.152 502.534 717.464 502.218 718.362C501.989 719.202 502.23 720.071 502.237 720.925C502.293 727.784 503.591 727.774 501.535 730.599C501.097 731.179 500.823 731.861 500.553 732.53C500.441 732.983 500.526 733.461 500.461 733.925C500.154 734.135 499.878 734.419 499.811 734.802C499.719 735.382 499.44 735.906 499.198 736.435C498.501 737.554 497.656 740.306 495.923 741.855C495.231 742.438 494.949 743.345 494.307 743.972C493.881 744.483 493.358 744.912 493.003 745.481C492.828 745.731 492.641 745.98 492.398 746.171C491.692 746.316 490.905 746.157 490.267 746.562C489.775 746.873 489.171 746.979 488.722 747.357C487.519 748.66 485.766 749.459 483.05 751.698C482.545 752.043 481.869 751.977 481.369 752.344C477.698 755.023 474.79 752.767 470.806 754.937C470.272 755.246 469.673 755.417 469.071 755.536C468.509 755.627 468.119 756.088 467.593 756.274C464.827 757.382 465.109 759.972 464.578 760.353C463.757 760.965 463.905 762.688 464.294 763.252C464.814 764.012 464.737 764.397 466.73 765.983C468.732 766.805 467.157 767.823 473.229 767.993C475.895 768.067 478.337 767.606 480.883 766.904C481.906 766.622 483.051 766.53 484.028 766.179C485.461 765.666 487.019 765.486 488.468 764.939C492.027 763.594 497.406 760.593 506.942 759.472C508.328 759.309 509.709 758.794 511.088 758.494C513.547 757.958 513.19 757.155 512.864 754.551C512.678 754.386 512.515 754.197 512.376 753.995C513.035 752.24 513.043 751.536 512.658 750.773C512.121 749.736 512.687 747.41 512.699 747.116C512.593 746.674 512.233 746.364 511.971 746.014C512.139 745.968 512.297 745.894 512.32 745.704C514.115 740.228 515.714 739.863 516.54 738.613C516.913 738.173 517.208 737.614 517.764 737.38C518.481 737.022 519.306 737.038 520.052 736.769C523.366 735.442 523.435 734.812 525.233 733.78C525.773 733.35 526.345 732.964 526.863 732.508C527.403 732.118 527.746 731.53 528.241 731.094C528.892 730.489 529.704 730.088 530.328 729.453C531.035 728.747 531.85 728.17 532.622 727.543C533.142 727.113 533.753 726.821 534.334 726.488C534.969 726.128 535.446 725.539 536.116 725.234C537.161 724.791 538.76 722.821 539.736 722.469C540.126 722.082 540.665 721.874 541.025 721.453C541.465 721.098 541.985 720.849 542.387 720.447C542.717 720.158 543.004 719.814 543.388 719.592C543.925 719.284 544.291 718.769 544.731 718.347C545.413 717.685 546.061 715.708 546.731 715.468C546.916 714.951 547.372 714.626 547.696 714.207C547.739 713.417 548.556 713.06 549.009 712.517C550.176 711.471 551.173 710.249 552.322 709.182C552.663 708.852 552.879 708.423 553.18 708.062C553.54 707.622 553.97 707.23 554.223 706.712C554.347 706.728 554.477 706.752 554.604 706.776C554.551 706.744 554.446 706.676 554.393 706.644C555.15 705.406 556.205 704.398 557.117 703.284C557.357 702.93 557.365 702.479 557.594 702.121C558.055 701.397 558.687 700.805 559.175 700.101C560.32 698.609 562.242 695.232 562.296 694.961C562.46 694.235 563.222 693.493 563.78 693.006C563.78 693.006 566.261 690.084 566.261 690.084C566.618 689.664 566.583 689.567 566.774 689.066C567.02 688.422 567.687 688.09 567.884 687.387C568.062 686.69 569.373 685.883 569.798 685.086C570.015 684.693 570.36 684.384 570.527 683.962C570.719 683.494 570.986 683.057 571.119 682.567C571.688 680.693 573.047 680.315 574.96 678.596C574.96 678.596 578.58 675.597 579.558 674.837C579.558 674.837 587.134 669.222 590.924 664.886C590.986 664.827 594.426 661.505 594.756 661.147C596.414 659.268 599.681 657.988 600.995 657.001C601.712 656.722 602.305 656.222 602.988 655.88C604.085 655.558 605.199 655.241 606.349 655.189C608.481 655.101 608.581 653.533 609.598 653.443C610.912 653.264 612.235 653.059 613.566 653.128C615.684 653.456 619.199 656.329 620.376 656.869C621.142 657.226 621.639 657.938 622.323 658.414C623.671 659.355 624.943 661.392 626.048 661.662C626.775 661.889 627.369 662.396 628.093 662.628C631.436 663.95 629.781 663.793 634.489 666.286C635.316 666.7 636.24 667.031 636.832 667.782C637.369 668.292 637.717 668.973 638.307 669.431C638.895 669.968 639.468 670.523 640.008 671.11C640.457 671.594 641.068 671.907 641.46 672.448C641.703 672.791 642.143 672.946 642.331 673.34C642.598 673.833 642.961 674.263 643.293 674.715C643.775 675.274 644.109 675.987 644.785 676.357C645.075 676.491 645.236 676.887 645.031 677.159C643.772 678.891 643.806 680.061 643.65 680.655C643.439 681.736 642.787 681.658 642.721 684.409C641.407 685.006 639.891 685.281 638.834 686.334C637.974 687.091 638.782 687.844 639.646 692.813C639.733 693.316 639.72 694.477 640.09 694.862C641.574 696.407 640.791 699.521 640.815 701.021C639.096 702.49 636.963 702.215 637.249 704.409C637.3 704.812 637.54 705.154 637.76 705.486C638.116 706.021 638.156 706.689 638.45 707.254C638.733 707.789 638.93 708.373 639.058 708.961C638.99 709.357 639.8 710.313 639.138 712.031C638.869 712.71 638.877 713.448 638.823 714.165C638.757 714.969 639.933 714.932 639.139 717.375C638.807 717.925 638.365 718.405 638.074 718.981C637.843 719.442 638.255 719.964 637.991 720.418C637.685 721.184 636.925 721.609 636.444 722.244C635.69 723.24 634.714 723.892 633.792 724.696C631.977 726.278 629.761 732.214 630.897 735.624C631.166 736.34 631.676 736.924 632.205 737.463C634.335 739.634 636.098 741.801 638.94 743.081C641.002 744.009 641.468 745.991 642.553 747.009C643.258 747.671 643.834 748.492 644.116 749.425C644.324 750.222 644.341 749.853 645.587 752.832C646.408 755.13 646.134 757.98 647.693 760.164C648.494 761.287 648.147 762.242 649.723 762.645C651.438 763.083 653.191 763.438 654.849 764.067C655.609 764.365 656.474 764.298 657.183 764.742C659.278 765.59 664.096 765.275 666.326 765.027C668.989 764.954 670.729 764.24 670.937 763.478C670.911 763.019 670.688 762.605 670.534 762.184C671.948 760.629 668.97 757.42 668.003 756.374C667.577 755.913 667.249 755.369 666.794 754.938C665.749 753.95 664.696 752.984 663.79 751.872C663.024 750.931 661.894 750.31 661.328 749.209C660.913 747.967 661.252 747.556 659.649 746.457C659.195 746.171 659.052 745.62 658.841 745.161C658.686 744.825 658.307 744.744 658.126 744.456C657.68 743.75 658.368 743.02 657.787 741.281C657.57 740.632 657.135 740.142 657.135 739.434C656.953 738.85 656.727 738.284 656.527 737.709C656.263 737.005 656.828 736.342 655.138 735.496C654.927 734.856 654.861 734.171 654.664 733.527C654.43 733.053 654.141 732.599 653.972 732.099C654.155 731.445 654.423 730.806 654.544 730.132C655.88 724.478 655.162 726.606 656.025 725.413C656.415 724.823 656.988 724.341 657.152 723.627C657.218 723.338 659.34 723.554 659.609 723.537C660.56 723.48 661.491 723.338 662.431 723.19C664.586 722.85 662.294 723.561 667.663 722.15C670.96 721.325 675.453 719.703 678.957 717.602C681.466 716.251 680.865 716.379 681.488 714.762C681.668 714.296 681.694 713.746 682.111 713.411C682.279 712.734 682.558 712.079 682.581 711.375C682.575 710.948 682.888 710.628 682.998 710.239C683.287 708.006 684.346 706.981 684.748 705.455C684.997 704.439 685.653 704.017 685.935 701.866C686.399 701.39 686.723 700.804 687.12 700.276C688.09 698.739 688.907 695.096 689.368 694.724C694.943 689.378 697.808 679.638 697.853 679.196C698.486 674.568 697.377 670.975 696.121 667.291Z" fill="black"/>
</svg>
